<svg id="Layer_1" data-name="Layer 1" xmlns="http://www.w3.org/2000/svg" width="280" height="280" viewBox="0 0 280 280"><defs><style>.cls-1{fill:#ff9b4a;}</style></defs><path class="cls-1" d="M150,17a133,133,0,0,1,94.05,227.05A133,133,0,0,1,56,56,132.15,132.15,0,0,1,150,17m0-7A140,140,0,1,0,290,150,140,140,0,0,0,150,10Z" transform="translate(-10 -10)"/><path class="cls-1" d="M191.92,113.58l-15.84-12.41S44.32,268.31,76,248,191.92,113.58,191.92,113.58Z" transform="translate(-10 -10)"/><polygon class="cls-1" points="170.61 85.53 184.19 73.11 195.5 82.14 186.45 97.94 170.61 85.53"/><path class="cls-1" d="M227,47s-43,15.79-26,34.2,15.84-19.73,15.84-19.73,6.79,28.94-1.13,27.63S225.87,102.25,227,47Z" transform="translate(-10 -10)"/></svg>