<svg id="Layer_1" data-name="Layer 1" xmlns="http://www.w3.org/2000/svg" width="280" height="280" viewBox="0 0 280 280"><defs><style>.cls-1{fill:#ff9b4a;}</style></defs><path class="cls-1" d="M150,17a133,133,0,0,1,94.05,227.05A133,133,0,0,1,56,56,132.15,132.15,0,0,1,150,17m0-7A140,140,0,1,0,290,150,140,140,0,0,0,150,10Z" transform="translate(-10 -10)"/><path class="cls-1" d="M182.61,135.14c27.93,4.8,50.62,18.63,50.62,47.78,0,20.43-11,36.66-28.22,46.28-15.13,8.71-30,11.72-50.34,11.72H83.09V232.5c24.74-2.4,26.19-5.11,26.19-28.85V83.15c0-24.94-2.62-27.05-26.19-29.15V45.59h76.24c21.82,0,35.5,3.9,44.81,10.51,10.18,7.22,17.16,18.33,17.16,33.66C221.3,118,198.9,130.93,182.61,135.14Zm-33.47-3.61c32,0,45.1-13.22,45.1-37.86,0-21-12.51-37.27-40.44-37.27-8.15,0-13.39.91-16.3,3-2.32,1.8-3.2,5.11-3.2,14.72v57.4ZM134.3,203.05c0,21.64,4.95,27,25.61,27,22.7,0,44.81-12.62,44.81-44.18,0-30.65-20.95-43.87-56.45-43.87h-14Z" transform="translate(-10 -10)"/></svg>