<svg id="Layer_1" data-name="Layer 1" xmlns="http://www.w3.org/2000/svg" width="200" height="173.2" viewBox="0 0 200 173.2"><defs><style>.cls-1{fill:#666;}</style></defs><path class="cls-1" d="M106.29,224.1,56.58,138l49.71-86.1h99.42L255.42,138l-49.71,86.1ZM156,77.5A60.5,60.5,0,1,0,216.5,138,60.57,60.57,0,0,0,156,77.5Z" transform="translate(-56 -51.4)"/><path d="M205.42,52.4,254.85,138l-49.43,85.6H106.58L57.15,138l49.43-85.6h98.84M156,199a61,61,0,1,0-61-61,61.06,61.06,0,0,0,61,61M206,51.4H106L56,138l50,86.6H206L256,138,206,51.4ZM156,198a60,60,0,1,1,60-60,60,60,0,0,1-60,60Z" transform="translate(-56 -51.4)"/></svg>