
<svg xmlns="http://www.w3.org/2000/svg" version="1.1" xmlns:xlink="http://www.w3.org/1999/xlink" preserveAspectRatio="none" x="0px" y="0px" width="800px" height="800px" viewBox="0 0 800 800">
<defs>
<g id="Layer1_0_MEMBER_0_FILL">
<path fill="#CCCCCC" stroke="none" d="
M 278.45 20.6
L 270.4 0.55 214.75 0.5 182.55 45 0.5 40.15 0.5 91.2 182.55 75.95 215.9 120.5 270.35 120.5 280.25 99.5 236.95 99.5 215.95 61.1 237 20.3 278.45 20.6 Z"/>
</g>

<g id="Layer1_1_MEMBER_0_FILL">
<path fill="#B3B3B3" stroke="none" d="
M 269.5 16.95
L 266.5 5.95 214.5 5.95 180.5 51.95 4.5 53.95 4.5 76.95 180.5 68.95 215.5 115.95 266.5 116.95 270.5 104.95 233.5 104.95 210.5 61.95 234.5 16.95 269.5 16.95 Z"/>
</g>

<g id="Layer0_0_FILL">
<path fill="#666666" stroke="none" d="
M 50.25 0.5
L 0.55 86.6 50.25 172.7 149.7 172.7 199.4 86.6 149.7 0.5 50.25 0.5
M 100 26.1
Q 125 26.1 142.75 43.85 160.45 61.55 160.5 86.6 160.5 111.65 142.8 129.4 125.05 147.1 100 147.1 74.9 147.1 57.2 129.4 39.5 111.65 39.5 86.6 39.5 61.5 57.2 43.8 74.9 26.1 100 26.1 Z"/>
</g>

<g id="Layer0_1_FILL">
<path fill="#000000" stroke="none" d="
M 50 0
L 0 86.6 50 173.15 150 173.15 200 86.6 150 0 50 0
M 1.15 86.6
L 50.55 1 149.4 1 198.85 86.6 149.4 172.2 50.55 172.2 1.15 86.6
M 143.1 43.45
Q 125.25 25.6 100 25.6 74.7 25.6 56.85 43.45 39 61.3 39 86.6 39 111.85 56.85 129.7 74.7 147.55 100 147.6 125.25 147.6 143.1 129.7 161 111.85 161 86.6 161 61.35 143.1 43.45
M 142.4 44.15
Q 160 61.75 160 86.6 160 111.45 142.4 129 124.85 146.6 100 146.6 75.15 146.6 57.55 129 40 111.45 40 86.6 40 61.75 57.55 44.15 75.15 26.6 100 26.6 124.85 26.6 142.4 44.15 Z"/>
</g>

<path id="Layer1_0_MEMBER_0_1_STROKES" stroke="#000000" stroke-width="1" stroke-linejoin="miter" stroke-linecap="butt" stroke-miterlimit="10" fill="none" d="
M 352.94478073120115 107.01281356811523
L 596.3696083068847 377.77395248413086 705.2230491638184 363.2623603820801 781.712574005127 444.05914382934566 763.7023002624512 483.32113113403324 707.1114852905273 422.77946014404296 618.9653312683105 448.37528457641605 592.1521812438964 531.6685615539551 651.7233772277832 594.4811790466308 607.6397789001464 609.011206817627 532.7286560058594 530.0239776611328 551.4723678588867 420.3542877197266 278.8897201538086 177.2462905883789 352.94478073120115 107.01281356811523 Z"/>

<path id="Layer1_1_MEMBER_0_1_STROKES" stroke="#666666" stroke-width="3" stroke-linejoin="miter" stroke-linecap="butt" stroke-miterlimit="10" fill="none" d="
M 338.4290916442871 131.80110397338868
L 583.4673301696778 384.36180343627933 696.9731285095215 370.39769210815433 768.5135948181153 445.8308586120606 756.6839134216309 465.3163322448731 708.5316764831543 414.54400863647464 610.2342979431153 441.6387199401856 579.4997703552247 534.1618522644043 630.4035636901856 587.8354515075683 607.4927970886231 598.5422386169433 538.7787467956543 523.1839317321777 558.80648727417 407.7500328063965 305.0644218444824 163.444002532959 338.4290916442871 131.80110397338868 Z"/>
</defs>

<g transform="matrix( 1.3757781982421875, 1.4506378173828125, -1.4506378173828125, 1.3757781982421875, 410.5,51.05) ">
<use xlink:href="#Layer1_0_MEMBER_0_FILL"/>

<use xlink:href="#Layer1_0_MEMBER_0_1_STROKES" transform="matrix( 0.3441925048828125, -0.3629150390625, 0.3629150390625, 0.3441925048828125, -159.8,131.4) "/>
</g>

<g transform="matrix( 1.3757781982421875, 1.4506378173828125, -1.4506378173828125, 1.3757781982421875, 410.5,51.05) ">
<use xlink:href="#Layer1_1_MEMBER_0_FILL"/>

<use xlink:href="#Layer1_1_MEMBER_0_1_STROKES" transform="matrix( 0.3441925048828125, -0.3629150390625, 0.3629150390625, 0.3441925048828125, -159.8,131.4) "/>
</g>

<g transform="matrix( 0.8559417724609375, -0.1815185546875, 0.1815032958984375, 0.85589599609375, 608.55,485.8) ">
<use xlink:href="#Layer0_0_FILL"/>
</g>

<g transform="matrix( 0.8559417724609375, -0.1815185546875, 0.1815032958984375, 0.85589599609375, 608.95,485.3) ">
<use xlink:href="#Layer0_1_FILL"/>
</g>
</svg>
