
<svg xmlns="http://www.w3.org/2000/svg" version="1.1" xmlns:xlink="http://www.w3.org/1999/xlink" preserveAspectRatio="none" x="0px" y="0px" width="800px" height="800px" viewBox="0 0 800 800">
<defs>
<g id="Layer1_0_MEMBER_0_FILL">
<path fill="#CCCCCC" stroke="none" d="
M 278.45 20.6
L 270.4 0.55 214.75 0.5 182.55 45 0.5 40.15 0.5 91.2 182.55 75.95 215.9 120.5 270.35 120.5 280.25 99.5 236.95 99.5 215.95 61.1 237 20.3 278.45 20.6 Z"/>
</g>

<g id="Layer1_1_MEMBER_0_FILL">
<path fill="#B3B3B3" stroke="none" d="
M 269.5 16.95
L 266.5 5.95 214.5 5.95 180.5 51.95 4.5 53.95 4.5 76.95 180.5 68.95 215.5 115.95 266.5 116.95 270.5 104.95 233.5 104.95 210.5 61.95 234.5 16.95 269.5 16.95 Z"/>
</g>

<g id="Layer0_0_FILL">
<path fill="#666666" stroke="none" d="
M 50.25 0.5
L 0.55 86.6 50.25 172.7 149.7 172.7 199.4 86.6 149.7 0.5 50.25 0.5
M 100 26.1
Q 125 26.1 142.75 43.85 160.45 61.55 160.5 86.6 160.5 111.65 142.8 129.4 125.05 147.1 100 147.1 74.9 147.1 57.2 129.4 39.5 111.65 39.5 86.6 39.5 61.5 57.2 43.8 74.9 26.1 100 26.1 Z"/>
</g>

<g id="Layer0_1_FILL">
<path fill="#000000" stroke="none" d="
M 50 0
L 0 86.6 50 173.15 150 173.15 200 86.6 150 0 50 0
M 1.15 86.6
L 50.55 1 149.4 1 198.85 86.6 149.4 172.2 50.55 172.2 1.15 86.6
M 143.1 43.45
Q 125.25 25.6 100 25.6 74.7 25.6 56.85 43.45 39 61.3 39 86.6 39 111.85 56.85 129.7 74.7 147.55 100 147.6 125.25 147.6 143.1 129.7 161 111.85 161 86.6 161 61.35 143.1 43.45
M 142.4 44.15
Q 160 61.75 160 86.6 160 111.45 142.4 129 124.85 146.6 100 146.6 75.15 146.6 57.55 129 40 111.45 40 86.6 40 61.75 57.55 44.15 75.15 26.6 100 26.6 124.85 26.6 142.4 44.15 Z"/>
</g>

<path id="Layer1_0_MEMBER_0_1_STROKES" stroke="#000000" stroke-width="1" stroke-linejoin="miter" stroke-linecap="butt" stroke-miterlimit="10" fill="none" d="
M 307.1299774169922 179.3260040283203
L 588.716586303711 410.11515808105474 694.1147735595703 379.2973907470703 781.947476196289 447.58361511230464 770.0874786376953 489.1171783447266 704.9887634277344 437.8402893066406 621.7358551025391 476.4802154541016 607.8385528564453 562.8680206298828 676.2268646240234 615.9385345458984 634.8521514892578 636.9721710205079 548.8534545898438 570.235693359375 550.7828125000001 458.9977966308594 244.56069946289062 259.9547180175781 307.1299774169922 179.3260040283203 Z"/>

<path id="Layer1_1_MEMBER_0_1_STROKES" stroke="#666666" stroke-width="3" stroke-linejoin="miter" stroke-linecap="butt" stroke-miterlimit="10" fill="none" d="
M 296.53367614746094 206.02440490722657
L 576.9605560302734 418.5794586181641 687.0401458740234 387.5987457275391 769.1692962646484 451.3323883056641 760.4253997802734 472.3828033447266 705.1461639404297 429.48515930175785 612.0862884521484 471.1429351806641 595.7098236083984 567.2473052978515 654.1478729248047 612.5962432861328 633.1224822998047 626.6465362548828 553.7983856201172 562.5591339111328 556.1245574951172 445.42937316894535 268.3437957763672 242.35075988769532 296.53367614746094 206.02440490722657 Z"/>
</defs>

<g transform="matrix( 1.57940673828125, 1.22564697265625, -1.22564697265625, 1.57940673828125, 355.55,115.3) ">
<use xlink:href="#Layer1_0_MEMBER_0_FILL"/>

<use xlink:href="#Layer1_0_MEMBER_0_1_STROKES" transform="matrix( 0.395172119140625, -0.3066558837890625, 0.3066558837890625, 0.395172119140625, -175.85,63.45) "/>
</g>

<g transform="matrix( 1.57940673828125, 1.22564697265625, -1.22564697265625, 1.57940673828125, 355.55,115.3) ">
<use xlink:href="#Layer1_1_MEMBER_0_FILL"/>

<use xlink:href="#Layer1_1_MEMBER_0_1_STROKES" transform="matrix( 0.395172119140625, -0.3066558837890625, 0.3066558837890625, 0.395172119140625, -175.85,63.45) "/>
</g>

<g transform="matrix( 0.818603515625, -0.3089752197265625, 0.3089447021484375, 0.8185577392578125, 601.75,501.75) ">
<use xlink:href="#Layer0_0_FILL"/>
</g>

<g transform="matrix( 0.818603515625, -0.3089752197265625, 0.3089447021484375, 0.8185577392578125, 602.05,501.2) ">
<use xlink:href="#Layer0_1_FILL"/>
</g>
</svg>
