
<svg xmlns="http://www.w3.org/2000/svg" version="1.1" xmlns:xlink="http://www.w3.org/1999/xlink" preserveAspectRatio="none" x="0px" y="0px" width="800px" height="800px" viewBox="0 0 800 800">
<defs>
<g id="Layer1_0_MEMBER_0_FILL">
<path fill="#CCCCCC" stroke="none" d="
M 278.45 20.6
L 270.4 0.55 214.75 0.5 182.55 45 0.5 40.15 0.5 91.2 182.55 75.95 215.9 120.5 270.35 120.5 280.25 99.5 236.95 99.5 215.95 61.1 237 20.3 278.45 20.6 Z"/>
</g>

<g id="Layer1_1_MEMBER_0_FILL">
<path fill="#B3B3B3" stroke="none" d="
M 269.5 16.95
L 266.5 5.95 214.5 5.95 180.5 51.95 4.5 53.95 4.5 76.95 180.5 68.95 215.5 115.95 266.5 116.95 270.5 104.95 233.5 104.95 210.5 61.95 234.5 16.95 269.5 16.95 Z"/>
</g>

<g id="Layer0_0_FILL">
<path fill="#666666" stroke="none" d="
M 50.25 0.5
L 0.55 86.6 50.25 172.7 149.7 172.7 199.4 86.6 149.7 0.5 50.25 0.5
M 100 26.1
Q 125 26.1 142.75 43.85 160.45 61.55 160.5 86.6 160.5 111.65 142.8 129.4 125.05 147.1 100 147.1 74.9 147.1 57.2 129.4 39.5 111.65 39.5 86.6 39.5 61.5 57.2 43.8 74.9 26.1 100 26.1 Z"/>
</g>

<g id="Layer0_1_FILL">
<path fill="#000000" stroke="none" d="
M 50 0
L 0 86.6 50 173.15 150 173.15 200 86.6 150 0 50 0
M 1.15 86.6
L 50.55 1 149.4 1 198.85 86.6 149.4 172.2 50.55 172.2 1.15 86.6
M 143.1 43.45
Q 125.25 25.6 100 25.6 74.7 25.6 56.85 43.45 39 61.3 39 86.6 39 111.85 56.85 129.7 74.7 147.55 100 147.6 125.25 147.6 143.1 129.7 161 111.85 161 86.6 161 61.35 143.1 43.45
M 142.4 44.15
Q 160 61.75 160 86.6 160 111.45 142.4 129 124.85 146.6 100 146.6 75.15 146.6 57.55 129 40 111.45 40 86.6 40 61.75 57.55 44.15 75.15 26.6 100 26.6 124.85 26.6 142.4 44.15 Z"/>
</g>

<path id="Layer1_0_MEMBER_0_1_STROKES" stroke="#000000" stroke-width="1" stroke-linejoin="miter" stroke-linecap="butt" stroke-miterlimit="10" fill="none" d="
M 213.31295013427734 386.92273483276364
L 566.2323966979981 476.23954467773433 648.5514976501465 403.5772994995117 757.0621795654297 428.0862236022949 763.966739654541 470.72037963867183 683.2595794677734 451.95285491943355 624.3090476989746 522.2901504516601 648.4202201843261 606.3924331665039 732.8669807434082 625.3863967895508 704.3474388122559 661.9993698120118 598.1551498413086 638.1143508911132 552.6558799743652 536.6004508972168 190.91937408447265 486.4841003417969 213.31295013427734 386.92273483276364 Z"/>

<path id="Layer1_1_MEMBER_0_1_STROKES" stroke="#666666" stroke-width="3" stroke-linejoin="miter" stroke-linecap="butt" stroke-miterlimit="10" fill="none" d="
M 215.06053314208984 415.591121673584
L 559.1856552124023 488.89468002319336 645.6732345581054 414.0966148376465 747.0873580932616 436.9069175720215 748.1129165649413 459.6758842468262 679.8534103393554 444.3227958679199 613.3072067260741 521.557186126709 639.3010879516601 615.5080375671387 711.4611373901366 631.7384452819824 698.3961349487304 653.3870658874512 599.3709426879882 629.0651512145996 551.7284408569335 522.0492973327637 204.9713607788086 460.4473686218262 215.06053314208984 415.591121673584 Z"/>
</defs>

<g transform="matrix( 1.9502716064453125, 0.43865966796875, -0.43865966796875, 1.9502716064453125, 229.95,308.4) ">
<use xlink:href="#Layer1_0_MEMBER_0_FILL"/>

<use xlink:href="#Layer1_0_MEMBER_0_1_STROKES" transform="matrix( 0.4880523681640625, -0.109771728515625, 0.109771728515625, 0.4880523681640625, -146.05,-125.25) "/>
</g>

<g transform="matrix( 1.9502716064453125, 0.43865966796875, -0.43865966796875, 1.9502716064453125, 229.95,308.4) ">
<use xlink:href="#Layer1_1_MEMBER_0_FILL"/>

<use xlink:href="#Layer1_1_MEMBER_0_1_STROKES" transform="matrix( 0.4880523681640625, -0.109771728515625, 0.109771728515625, 0.4880523681640625, -146.05,-125.25) "/>
</g>

<g transform="matrix( 0.60980224609375, -0.627410888671875, 0.62738037109375, 0.609771728515625, 595.85,551.15) ">
<use xlink:href="#Layer0_0_FILL"/>
</g>

<g transform="matrix( 0.60980224609375, -0.627410888671875, 0.62738037109375, 0.609771728515625, 595.85,550.55) ">
<use xlink:href="#Layer0_1_FILL"/>
</g>
</svg>
