
<svg xmlns="http://www.w3.org/2000/svg" version="1.1" xmlns:xlink="http://www.w3.org/1999/xlink" preserveAspectRatio="none" x="0px" y="0px" width="800px" height="800px" viewBox="0 0 800 800">
<defs>
<g id="Layer1_0_MEMBER_0_FILL">
<path fill="#CCCCCC" stroke="none" d="
M 278.45 20.6
L 270.4 0.55 214.75 0.5 182.55 45 0.5 40.15 0.5 91.2 182.55 75.95 215.9 120.5 270.35 120.5 280.25 99.5 236.95 99.5 215.95 61.1 237 20.3 278.45 20.6 Z"/>
</g>

<g id="Layer1_1_MEMBER_0_FILL">
<path fill="#B3B3B3" stroke="none" d="
M 269.5 16.95
L 266.5 5.95 214.5 5.95 180.5 51.95 4.5 53.95 4.5 76.95 180.5 68.95 215.5 115.95 266.5 116.95 270.5 104.95 233.5 104.95 210.5 61.95 234.5 16.95 269.5 16.95 Z"/>
</g>

<g id="Layer0_0_FILL">
<path fill="#666666" stroke="none" d="
M 50.25 0.5
L 0.55 86.6 50.25 172.7 149.7 172.7 199.4 86.6 149.7 0.5 50.25 0.5
M 100 26.1
Q 125 26.1 142.75 43.85 160.45 61.55 160.5 86.6 160.5 111.65 142.8 129.4 125.05 147.1 100 147.1 74.9 147.1 57.2 129.4 39.5 111.65 39.5 86.6 39.5 61.5 57.2 43.8 74.9 26.1 100 26.1 Z"/>
</g>

<g id="Layer0_1_FILL">
<path fill="#000000" stroke="none" d="
M 50 0
L 0 86.6 50 173.15 150 173.15 200 86.6 150 0 50 0
M 1.15 86.6
L 50.55 1 149.4 1 198.85 86.6 149.4 172.2 50.55 172.2 1.15 86.6
M 143.1 43.45
Q 125.25 25.6 100 25.6 74.7 25.6 56.85 43.45 39 61.3 39 86.6 39 111.85 56.85 129.7 74.7 147.55 100 147.6 125.25 147.6 143.1 129.7 161 111.85 161 86.6 161 61.35 143.1 43.45
M 142.4 44.15
Q 160 61.75 160 86.6 160 111.45 142.4 129 124.85 146.6 100 146.6 75.15 146.6 57.55 129 40 111.45 40 86.6 40 61.75 57.55 44.15 75.15 26.6 100 26.6 124.85 26.6 142.4 44.15 Z"/>
</g>

<path id="Layer1_0_MEMBER_0_1_STROKES" stroke="#000000" stroke-width="1" stroke-linejoin="miter" stroke-linecap="butt" stroke-miterlimit="10" fill="none" d="
M 140.5 502.35
L 504.6 512.05 569 423.05 680.3 423.15000000000003 696.4 463.25 613.5 462.65000000000003 571.4 544.25 613.4 621.05 700 621.05 680.2 663.05 571.3 663.05 504.6 573.95 140.5 604.45 140.5 502.35 Z"/>

<path id="Layer1_1_MEMBER_0_1_STROKES" stroke="#666666" stroke-width="3" stroke-linejoin="miter" stroke-linecap="butt" stroke-miterlimit="10" fill="none" d="
M 148.5 529.95
L 500.5 525.95 568.5 433.95 672.5 433.95 678.5 455.95 608.5 455.95 560.5 545.95 606.5 631.95 680.5 631.95 672.5 655.95 570.5 653.95 500.5 559.95 148.5 575.95 148.5 529.95 Z"/>
</defs>

<g transform="matrix( 2, 0, 0, 2, 139.5,422.05) ">
<use xlink:href="#Layer1_0_MEMBER_0_FILL"/>

<use xlink:href="#Layer1_0_MEMBER_0_1_STROKES" transform="matrix( 0.5, 0, 0, 0.5, -69.75,-211) "/>
</g>

<g transform="matrix( 2, 0, 0, 2, 139.5,422.05) ">
<use xlink:href="#Layer1_1_MEMBER_0_FILL"/>

<use xlink:href="#Layer1_1_MEMBER_0_1_STROKES" transform="matrix( 0.5, 0, 0, 0.5, -69.75,-211) "/>
</g>

<g transform="matrix( 0.8749847412109375, 0, 0, 0.87493896484375, 621.95,466.1) ">
<use xlink:href="#Layer0_0_FILL"/>
</g>

<g transform="matrix( 0.8749847412109375, 0, 0, 0.87493896484375, 622.45,465.7) ">
<use xlink:href="#Layer0_1_FILL"/>
</g>
</svg>
