
<svg xmlns="http://www.w3.org/2000/svg" version="1.1" xmlns:xlink="http://www.w3.org/1999/xlink" preserveAspectRatio="none" x="0px" y="0px" width="800px" height="800px" viewBox="0 0 800 800">
<defs>
<g id="Layer1_0_MEMBER_0_FILL">
<path fill="#CCCCCC" stroke="none" d="
M 278.45 20.6
L 270.4 0.55 214.75 0.5 182.55 45 0.5 40.15 0.5 91.2 182.55 75.95 215.9 120.5 270.35 120.5 280.25 99.5 236.95 99.5 215.95 61.1 237 20.3 278.45 20.6 Z"/>
</g>

<g id="Layer1_1_MEMBER_0_FILL">
<path fill="#B3B3B3" stroke="none" d="
M 269.5 16.95
L 266.5 5.95 214.5 5.95 180.5 51.95 4.5 53.95 4.5 76.95 180.5 68.95 215.5 115.95 266.5 116.95 270.5 104.95 233.5 104.95 210.5 61.95 234.5 16.95 269.5 16.95 Z"/>
</g>

<g id="Layer0_0_FILL">
<path fill="#666666" stroke="none" d="
M 50.25 0.5
L 0.55 86.6 50.25 172.7 149.7 172.7 199.4 86.6 149.7 0.5 50.25 0.5
M 100 26.1
Q 125 26.1 142.75 43.85 160.45 61.55 160.5 86.6 160.5 111.65 142.8 129.4 125.05 147.1 100 147.1 74.9 147.1 57.2 129.4 39.5 111.65 39.5 86.6 39.5 61.5 57.2 43.8 74.9 26.1 100 26.1 Z"/>
</g>

<g id="Layer0_1_FILL">
<path fill="#000000" stroke="none" d="
M 50 0
L 0 86.6 50 173.15 150 173.15 200 86.6 150 0 50 0
M 1.15 86.6
L 50.55 1 149.4 1 198.85 86.6 149.4 172.2 50.55 172.2 1.15 86.6
M 143.1 43.45
Q 125.25 25.6 100 25.6 74.7 25.6 56.85 43.45 39 61.3 39 86.6 39 111.85 56.85 129.7 74.7 147.55 100 147.6 125.25 147.6 143.1 129.7 161 111.85 161 86.6 161 61.35 143.1 43.45
M 142.4 44.15
Q 160 61.75 160 86.6 160 111.45 142.4 129 124.85 146.6 100 146.6 75.15 146.6 57.55 129 40 111.45 40 86.6 40 61.75 57.55 44.15 75.15 26.6 100 26.6 124.85 26.6 142.4 44.15 Z"/>
</g>

<path id="Layer1_0_MEMBER_0_1_STROKES" stroke="#000000" stroke-width="1" stroke-linejoin="miter" stroke-linecap="butt" stroke-miterlimit="10" fill="none" d="
M 251.14075317382816 63.6252670288086
L 532.7170700073243 294.59205627441406 638.157731628418 263.8070922851563 725.9886871337891 332.14766082763674 714.1088638305664 373.6884735107422 649.0117065429688 322.3711151123047 565.719596862793 360.98923950195314 551.7841537475585 447.39638061523436 620.1711441040039 500.5091796875 578.7762252807618 521.5325073242187 492.7791900634766 454.74285583496095 494.7530715942383 343.4737503051758 188.52162170410156 144.25242309570314 251.14075317382816 63.6252670288086 Z"/>

<path id="Layer1_1_MEMBER_0_1_STROKES" stroke="#666666" stroke-width="3" stroke-linejoin="miter" stroke-linecap="butt" stroke-miterlimit="10" fill="none" d="
M 240.53085327148438 90.32715301513672
L 520.9543151855469 303.0541427612305 631.0777893066406 272.10803680419923 713.2053527832031 335.89246063232423 704.4506225585938 356.94546966552736 649.1724548339844 314.0136459350586 556.0693664550781 355.64661102294923 539.6502075195312 451.7721298217774 598.0871276855469 497.15720062255866 577.0501403808594 511.20322113037116 497.72857666015625 447.0660446166993 500.1017150878906 329.9035385131836 212.31851196289062 126.65280609130859 240.53085327148438 90.32715301513672 Z"/>
</defs>

<g transform="matrix( 1.579376220703125, 1.22662353515625, -1.22662353515625, 1.579376220703125, 299.6,-0.4) ">
<use xlink:href="#Layer1_0_MEMBER_0_FILL"/>

<use xlink:href="#Layer1_0_MEMBER_0_1_STROKES" transform="matrix( 0.394927978515625, -0.3067169189453125, 0.3067169189453125, 0.394927978515625, -118.2,92.05) "/>
</g>

<g transform="matrix( 1.579376220703125, 1.22662353515625, -1.22662353515625, 1.579376220703125, 299.6,-0.4) ">
<use xlink:href="#Layer1_1_MEMBER_0_FILL"/>

<use xlink:href="#Layer1_1_MEMBER_0_1_STROKES" transform="matrix( 0.394927978515625, -0.3067169189453125, 0.3067169189453125, 0.394927978515625, -118.2,92.05) "/>
</g>

<g transform="matrix( 0.8749847412109375, 0, 0, 0.87493896484375, 621.95,466.1) ">
<use xlink:href="#Layer0_0_FILL"/>
</g>

<g transform="matrix( 0.8749847412109375, 0, 0, 0.87493896484375, 622.45,465.7) ">
<use xlink:href="#Layer0_1_FILL"/>
</g>
</svg>
